<svg xmlns="http://www.w3.org/2000/svg" xmlns:xlink="http://www.w3.org/1999/xlink" width="500" zoomAndPan="magnify" viewBox="0 0 375 374.999991" height="500" preserveAspectRatio="xMidYMid meet" version="1.0"><defs><clipPath id="id1"><path d="M 170.039062 221.863281 L 207.238281 221.863281 L 207.238281 262.46875 L 170.039062 262.46875 Z M 170.039062 221.863281 " clip-rule="nonzero"/></clipPath><clipPath id="id2"><path d="M 188.8125 255.410156 L 207.238281 255.410156 L 207.238281 262.46875 L 188.8125 262.46875 Z M 188.8125 255.410156 " clip-rule="nonzero"/></clipPath><clipPath id="id3"><path d="M 170.039062 255.410156 L 188.464844 255.410156 L 188.464844 262.46875 L 170.039062 262.46875 Z M 170.039062 255.410156 " clip-rule="nonzero"/></clipPath><clipPath id="id4"><path d="M 124.5 112.53125 L 250.492188 112.53125 L 250.492188 227.25 L 124.5 227.25 Z M 124.5 112.53125 " clip-rule="nonzero"/></clipPath></defs><path fill="#fb9607" d="M 213.324219 252.226562 C 213.113281 248.386719 213.28125 237.878906 210.992188 235.472656 C 208.878906 233.253906 208.660156 224.753906 208.136719 222.636719 C 206.449219 218.078125 171.867188 218.394531 169.640625 222.214844 C 168.683594 223.484375 168.148438 233.234375 165.921875 235.460938 C 163.574219 237.808594 163.800781 248.386719 163.589844 252.226562 C 163.378906 256.0625 170.21875 257.257812 170.21875 257.257812 L 206.695312 257.257812 C 206.695312 257.257812 213.539062 256.0625 213.324219 252.226562 " fill-opacity="1" fill-rule="nonzero"/><path fill="#e48904" d="M 170.21875 257.257812 L 206.695312 257.257812 C 206.695312 257.257812 213.539062 256.0625 213.324219 252.226562 C 213.277344 251.3125 213.246094 250.003906 213.199219 248.539062 C 207.84375 255.367188 193.128906 254.75 188.671875 254.800781 C 184.53125 254.847656 169.34375 255.351562 163.726562 247.878906 C 163.671875 249.613281 163.648438 251.1875 163.589844 252.226562 C 163.378906 256.066406 170.21875 257.257812 170.21875 257.257812 " fill-opacity="1" fill-rule="nonzero"/><path fill="#e48904" d="M 177.019531 229.375 C 180.882812 227.070312 184.910156 230.632812 187.519531 230.886719 C 191.21875 231.246094 193.136719 228.753906 195.632812 228.179688 C 198.066406 227.625 201.757812 230.886719 204.34375 230.566406 C 205.644531 230.40625 207.328125 229.421875 208.996094 229.199219 C 208.996094 229.199219 208.472656 223.984375 208.136719 222.625 C 206.449219 218.070312 171.867188 218.390625 169.640625 222.207031 C 169.089844 222.9375 168.234375 228.59375 168.234375 228.59375 C 170.859375 229.53125 174.40625 230.933594 177.019531 229.375 " fill-opacity="1" fill-rule="nonzero"/><g clip-path="url(#id1)"><path fill="#ffbb00" d="M 204.433594 227.738281 C 204.386719 227.574219 204.105469 221.9375 204.105469 221.9375 L 172.921875 221.9375 L 172.921875 227.738281 C 172.285156 230.03125 169.210938 253.671875 170.484375 257.398438 C 171.757812 261.128906 188.082031 266.25 188.402344 258.175781 C 188.402344 258.175781 188.046875 239.742188 187.445312 232.808594 L 189.910156 232.808594 C 189.308594 239.742188 188.953125 258.175781 188.953125 258.175781 C 189.273438 266.25 205.597656 261.128906 206.871094 257.398438 C 208.144531 253.671875 205.066406 230.03125 204.433594 227.738281 " fill-opacity="1" fill-rule="nonzero"/></g><path fill="#eda200" d="M 204.105469 221.9375 L 172.921875 221.9375 L 172.921875 227.738281 C 172.832031 228.066406 172.691406 228.828125 172.523438 229.898438 C 174.101562 230.195312 175.683594 230.171875 177.019531 229.375 C 180.882812 227.070312 184.910156 230.632812 187.519531 230.886719 C 191.21875 231.246094 193.136719 228.753906 195.632812 228.179688 C 198.066406 227.625 201.757812 230.886719 204.34375 230.566406 C 204.527344 230.546875 204.71875 230.503906 204.917969 230.453125 C 204.710938 229.089844 204.539062 228.121094 204.433594 227.738281 C 204.386719 227.574219 204.105469 221.9375 204.105469 221.9375 " fill-opacity="1" fill-rule="nonzero"/><g clip-path="url(#id2)"><path fill="#fb9607" d="M 206.871094 256.777344 C 205.632812 259.257812 190.097656 262.644531 189.011719 257.710938 C 188.972656 258.839844 188.953125 259.535156 188.953125 259.535156 C 189.273438 265.050781 205.597656 261.550781 206.871094 259.007812 C 207.164062 258.425781 207.226562 257.132812 207.144531 255.46875 C 207.101562 256.046875 207.011719 256.496094 206.871094 256.777344 " fill-opacity="1" fill-rule="nonzero"/></g><path fill="#ffd800" d="M 190.832031 255.746094 C 191.015625 256.488281 194.488281 255.347656 197.355469 255.109375 C 200.929688 254.8125 205.933594 255.015625 205.792969 254.257812 C 205.601562 253.195312 200.597656 252.105469 197.355469 252.699219 C 193.824219 253.339844 190.511719 254.453125 190.832031 255.746094 " fill-opacity="1" fill-rule="nonzero"/><g clip-path="url(#id3)"><path fill="#fb9607" d="M 170.484375 256.777344 C 171.722656 259.257812 187.253906 262.644531 188.34375 257.710938 C 188.382812 258.839844 188.402344 259.535156 188.402344 259.535156 C 188.082031 265.050781 171.753906 261.550781 170.484375 259.007812 C 170.191406 258.425781 170.128906 257.132812 170.210938 255.46875 C 170.253906 256.046875 170.34375 256.496094 170.484375 256.777344 " fill-opacity="1" fill-rule="nonzero"/></g><path fill="#ffd800" d="M 186.523438 255.746094 C 186.339844 256.488281 182.863281 255.347656 180 255.109375 C 176.425781 254.8125 171.421875 255.015625 171.558594 254.257812 C 171.753906 253.195312 176.753906 252.105469 180 252.699219 C 183.53125 253.339844 186.84375 254.453125 186.523438 255.746094 " fill-opacity="1" fill-rule="nonzero"/><path fill="#5e0808" d="M 155.949219 252.875 C 153.457031 252.875 151.257812 252.339844 149.371094 251.265625 C 144.964844 248.761719 143.902344 244.273438 143.863281 244.082031 L 144.605469 243.914062 C 144.605469 243.980469 145.6875 247.820312 149.773438 250.136719 C 153.222656 252.09375 158.378906 251.214844 164.011719 249.339844 L 164.011719 251.648438 C 161.175781 252.589844 158.285156 252.875 155.949219 252.875 " fill-opacity="1" fill-rule="nonzero"/><path fill="#e46214" d="M 144.445312 244.632812 C 143.132812 244.925781 139.566406 241.878906 141.050781 236.785156 C 142.535156 231.695312 146.566406 228.40625 146.566406 228.40625 C 146.566406 228.40625 150.703125 234.132812 149.75 237.421875 C 148.792969 240.710938 145.921875 244.304688 144.445312 244.632812 " fill-opacity="1" fill-rule="nonzero"/><path fill="#ae410d" d="M 144.367188 241.71875 C 143.527344 241.90625 141.839844 241.265625 140.734375 239.894531 C 141.058594 243.078125 143.425781 244.859375 144.445312 244.632812 C 145.921875 244.304688 148.792969 240.710938 149.75 237.421875 C 149.878906 236.972656 149.910156 236.476562 149.875 235.957031 C 148.648438 238.636719 145.910156 241.371094 144.367188 241.71875 " fill-opacity="1" fill-rule="nonzero"/><g clip-path="url(#id4)"><path fill="#ae410d" d="M 196.628906 116.613281 C 198.066406 120.910156 204.105469 117.664062 205.605469 116.394531 C 208.640625 113.832031 216.277344 114.789062 217.449219 118.84375 C 218.492188 122.441406 218.066406 127.550781 224.222656 124.09375 C 230.40625 120.621094 235.542969 127.796875 235.542969 131.257812 C 235.542969 133.960938 232.984375 139.910156 237.199219 139.683594 C 241.449219 139.457031 246.691406 142.933594 245.472656 148.753906 C 245.042969 150.800781 238.117188 155.507812 241.652344 156.390625 C 248.109375 157.996094 254.515625 166.925781 245.914062 172.796875 C 239.71875 177.023438 243.917969 178.730469 247.390625 180.859375 C 251.878906 183.605469 252.046875 193.183594 244.199219 193.0625 C 241.550781 193.019531 241.871094 197.710938 243.5625 199.027344 C 247.859375 202.367188 244.835938 206.824219 240.378906 206.824219 C 236.023438 206.824219 234.835938 206.585938 235.023438 212.601562 C 235.238281 219.390625 226.328125 213.875 223.636719 217.507812 C 222.6875 218.792969 221.984375 221.871094 219.855469 222.730469 C 218.097656 223.445312 215 222.21875 213.332031 220.761719 C 210.621094 218.398438 208.746094 223.695312 207.15625 224.847656 C 202.25 228.40625 200.445312 220.761719 195.007812 222.652344 C 192.597656 223.488281 191.464844 225.933594 189.109375 226.820312 C 186.132812 227.945312 184.214844 225.785156 182.585938 223.660156 C 180.207031 220.554688 175.078125 229.082031 170.585938 226.710938 C 169.011719 225.878906 168.726562 223.964844 167.699219 222.667969 C 165.878906 220.359375 163.277344 222.015625 161.21875 222.9375 C 159.601562 223.660156 157.085938 223.992188 155.535156 222.875 C 153.988281 221.753906 154.34375 219.613281 153.769531 218.011719 C 151.515625 211.765625 147.539062 218.871094 143.863281 216.367188 C 140.511719 214.089844 145.703125 207.226562 138.382812 208.714844 C 134.367188 209.53125 131.457031 208.0625 131.558594 202.84375 C 131.625 199.320312 136.804688 197.675781 134.957031 194.09375 C 134.207031 192.636719 131.386719 191.382812 130.011719 191.234375 C 127.457031 190.964844 126.039062 188.753906 125.867188 186.351562 C 125.480469 180.976562 128.96875 180.832031 132.089844 178.609375 C 136.097656 175.75 128.84375 173.523438 127.117188 171.957031 C 123.261719 168.453125 123.753906 162.5 128.023438 159.566406 C 130.144531 158.109375 136.71875 156.179688 133.46875 152.730469 C 129.964844 149.015625 126.085938 141.152344 136.96875 138.09375 C 139.761719 137.304688 143.058594 140.109375 142.695312 135.070312 C 142.386719 130.777344 139.988281 129.074219 143.207031 124.886719 C 145.34375 122.109375 150.308594 121.808594 152.785156 124.148438 C 156.246094 127.425781 158.789062 125.183594 158.125 120.75 C 157.570312 117.023438 162.363281 114.328125 165.652344 114.207031 C 170.371094 114.027344 172.492188 119.457031 176.367188 119.917969 C 179.339844 120.273438 180.257812 114.550781 184.296875 113.15625 C 190.183594 111.125 195.929688 114.519531 196.628906 116.613281 " fill-opacity="1" fill-rule="nonzero"/></g><path fill="#d15018" d="M 151.917969 134.066406 C 154.316406 131.296875 156.566406 133.492188 159.402344 132.175781 C 161.375 131.257812 161.289062 129.011719 162.417969 127.480469 C 164.910156 124.105469 168.484375 124.527344 171.652344 126.738281 C 172.648438 127.429688 173.566406 128.816406 175 128.617188 C 177.128906 128.320312 178.480469 125.976562 180.050781 124.734375 C 182.953125 122.449219 188.132812 121.082031 191.351562 123.652344 C 192.394531 124.488281 192.992188 126.003906 194.214844 126.59375 C 195.992188 127.453125 198.367188 126.253906 199.960938 125.484375 C 202.859375 124.085938 205.910156 122.773438 208.914062 124.667969 C 211.488281 126.289062 211.75 129.4375 214.917969 130.753906 C 217.722656 131.925781 220.78125 130.554688 223.636719 131.535156 C 226.996094 132.691406 226.441406 134.535156 226.242188 137.472656 C 225.996094 141.148438 227.648438 143.777344 230.992188 145.1875 C 233.542969 146.265625 235.835938 147.160156 235.414062 150.511719 C 234.957031 154.175781 229.679688 157.347656 234.050781 161.023438 C 235.578125 162.308594 237.910156 162.371094 239.246094 163.765625 C 241.933594 166.5625 240.753906 170.097656 238.320312 172.414062 C 236.804688 173.859375 234.855469 175.171875 234.292969 177.324219 C 233.519531 180.257812 239.265625 182.339844 239.515625 185.183594 C 239.835938 188.804688 234.5625 189.5625 234.175781 192.894531 C 233.738281 196.640625 238.660156 198.777344 235.769531 202.710938 C 234.589844 204.316406 232.292969 204.257812 230.667969 205.128906 C 228.761719 206.152344 228.84375 207.6875 228.453125 209.570312 C 227.984375 211.832031 226.183594 212.101562 224.273438 211.851562 C 221.585938 211.5 222 213.445312 220.039062 214.9375 C 218.054688 216.445312 215.378906 216.515625 213.136719 215.78125 C 211.40625 215.210938 209.625 214.441406 207.84375 215.257812 C 205.71875 216.234375 205.683594 220.4375 202.496094 219.578125 C 200.167969 218.953125 199.3125 216.050781 196.421875 216.25 C 192.578125 216.511719 190.199219 221.710938 185.972656 219.855469 C 183.324219 218.691406 181.933594 215.546875 178.648438 217.117188 C 176.09375 218.335938 173.402344 222.023438 170.210938 220.324219 C 168.335938 219.328125 167.675781 216.976562 165.410156 216.488281 C 163.074219 215.988281 161.164062 217.796875 158.996094 217.609375 C 155.574219 217.308594 159.449219 211.199219 154.148438 211.460938 C 151.921875 211.570312 148.769531 212.996094 146.828125 211.503906 C 144.300781 209.5625 146.253906 205.960938 145.722656 203.347656 C 145.085938 200.230469 141.582031 202.105469 139.957031 200.242188 C 137.175781 197.050781 143.648438 194.113281 140.476562 191.296875 C 138.25 189.324219 133.597656 189.457031 135.015625 185.210938 C 136.164062 181.765625 141.617188 181.933594 141.457031 177.636719 C 141.289062 173.148438 130.660156 169.054688 134.75 164.4375 C 136.792969 162.136719 144.753906 161.90625 145.445312 158.511719 C 146.121094 155.1875 133.085938 146.0625 146.78125 144.914062 C 149.148438 144.714844 151.566406 142.722656 151.84375 140.070312 C 152.070312 137.921875 150.214844 136.035156 151.917969 134.066406 " fill-opacity="1" fill-rule="nonzero"/><path fill="#ae410d" d="M 221.460938 165.617188 C 217.515625 163.148438 214.746094 162.382812 209.941406 159.304688 C 207.691406 157.867188 198.066406 150.078125 194.480469 149.503906 C 193.050781 149.273438 191.273438 153.046875 188.402344 153.160156 C 186.394531 153.238281 185.804688 149.933594 183.347656 149.546875 C 179.292969 148.910156 169.347656 157.4375 168.257812 159.09375 C 165.597656 163.125 156.96875 163.515625 156.023438 168.347656 C 155.527344 170.867188 152.320312 171.109375 151.351562 173.199219 C 148.847656 178.609375 155.105469 197.808594 162.859375 202.289062 C 164.082031 202.996094 165.335938 201.730469 166.410156 202.902344 C 167.332031 203.910156 168.363281 207.382812 170.058594 206.722656 C 174.726562 204.914062 172.996094 211.171875 176.625 208.390625 C 179.675781 206.054688 184.347656 212.558594 185.332031 213.929688 C 188.367188 218.15625 190.316406 213.941406 192.546875 211.488281 C 194.3125 209.546875 195.847656 211.988281 197.398438 210.703125 C 199.027344 209.355469 198.199219 206.878906 201.230469 208 C 203.460938 208.824219 202.957031 205.46875 205.488281 206.0625 C 208.019531 206.65625 209.25 205.84375 210.191406 204.398438 C 212.273438 201.199219 216.074219 203.808594 216.941406 201.730469 C 218.136719 198.863281 225.425781 193.183594 226.484375 185.558594 C 228.226562 176.488281 225.105469 167.898438 221.460938 165.617188 " fill-opacity="1" fill-rule="nonzero"/><path fill="#e46214" d="M 208.964844 134.054688 C 206.703125 135.496094 206.023438 136.242188 203.363281 134.222656 C 201.457031 132.773438 198.695312 132.628906 196.753906 134.890625 C 195.214844 136.679688 193.152344 135.578125 191.945312 133.539062 C 190.835938 131.664062 189.890625 129.996094 187.386719 130.253906 C 184.398438 130.5625 183.324219 133.464844 181.140625 135.003906 C 179.097656 136.445312 177.230469 134.101562 175.644531 133.042969 C 173.203125 131.410156 169.886719 131.53125 167.394531 132.804688 C 162.960938 135.070312 160.886719 140.332031 163.070312 139.550781 C 164.609375 139 169.792969 137.191406 172.339844 138.199219 C 174.308594 138.976562 177.261719 140.933594 180.375 141.046875 C 183.34375 141.152344 187.441406 135.066406 191.007812 139.789062 C 193.128906 142.601562 196.523438 142.496094 198.167969 140.851562 C 200.296875 138.71875 201.679688 138.726562 204.265625 139.574219 C 206.824219 140.414062 207.269531 140.578125 209.128906 138.539062 C 209.78125 137.824219 210.65625 137.253906 211.675781 137.488281 C 212.625 137.710938 214.488281 140.246094 215.507812 139.84375 C 216.496094 139.453125 214.390625 135.847656 214.402344 135.875 C 213.226562 133.277344 210.75 132.917969 208.964844 134.054688 " fill-opacity="1" fill-rule="nonzero"/><path fill="#fb9607" d="M 211.425781 165.617188 L 204.152344 161.09375 C 204.152344 161.09375 210.578125 145.574219 212.644531 145.078125 C 214.707031 144.585938 223.628906 150.148438 224.207031 153.207031 C 224.78125 156.265625 211.425781 165.617188 211.425781 165.617188 " fill-opacity="1" fill-rule="nonzero"/><path fill="#fb9607" d="M 165.722656 165.617188 L 172.996094 161.09375 C 172.996094 161.09375 166.566406 145.574219 164.503906 145.078125 C 162.441406 144.585938 153.519531 150.148438 152.941406 153.207031 C 152.363281 156.265625 165.722656 165.617188 165.722656 165.617188 " fill-opacity="1" fill-rule="nonzero"/><path fill="#ffbb00" d="M 227.824219 179.882812 C 231.421875 193.691406 210.234375 205.761719 188.535156 205.761719 C 166.839844 205.761719 146.589844 191.425781 151.847656 178.183594 C 157.65625 163.546875 177.242188 154.003906 188.535156 154.003906 C 200.976562 154.003906 224.09375 165.5625 227.824219 179.882812 " fill-opacity="1" fill-rule="nonzero"/><path fill="#fb9607" d="M 188.535156 202.421875 C 170.113281 202.421875 152.734375 192.085938 151.128906 180.859375 C 149.3125 193.285156 168.292969 205.761719 188.535156 205.761719 C 209.488281 205.761719 229.960938 194.511719 228.105469 181.304688 C 226.453125 193.011719 207.695312 202.421875 188.535156 202.421875 " fill-opacity="1" fill-rule="nonzero"/><path fill="#000000" d="M 208.773438 178.609375 C 208.773438 181.1875 206.683594 183.277344 204.105469 183.277344 C 201.527344 183.277344 199.441406 181.1875 199.441406 178.609375 C 199.441406 176.03125 201.527344 173.941406 204.105469 173.941406 C 206.683594 173.941406 208.773438 176.03125 208.773438 178.609375 " fill-opacity="1" fill-rule="nonzero"/><path fill="#fffafa" d="M 203.523438 176.488281 C 203.523438 177.191406 202.953125 177.761719 202.25 177.761719 C 201.546875 177.761719 200.976562 177.191406 200.976562 176.488281 C 200.976562 175.785156 201.546875 175.214844 202.25 175.214844 C 202.953125 175.214844 203.523438 175.785156 203.523438 176.488281 " fill-opacity="1" fill-rule="nonzero"/><path fill="#000000" d="M 177.589844 178.609375 C 177.589844 181.1875 175.5 183.277344 172.921875 183.277344 C 170.34375 183.277344 168.257812 181.1875 168.257812 178.609375 C 168.257812 176.03125 170.34375 173.941406 172.921875 173.941406 C 175.5 173.941406 177.589844 176.03125 177.589844 178.609375 " fill-opacity="1" fill-rule="nonzero"/><path fill="#fffafa" d="M 172.339844 176.488281 C 172.339844 177.191406 171.769531 177.761719 171.066406 177.761719 C 170.363281 177.761719 169.792969 177.191406 169.792969 176.488281 C 169.792969 175.785156 170.363281 175.214844 171.066406 175.214844 C 171.769531 175.214844 172.339844 175.785156 172.339844 176.488281 " fill-opacity="1" fill-rule="nonzero"/><path fill="#5e0808" d="M 182.070312 193.378906 C 180.421875 193.320312 177.515625 192.207031 176.597656 191.082031 C 176.285156 193.796875 179.746094 195.207031 181.953125 195.273438 C 184.617188 195.355469 188.320312 194.8125 188.511719 191.707031 C 187.296875 193.082031 184.019531 193.449219 182.070312 193.378906 " fill-opacity="1" fill-rule="nonzero"/><path fill="#5e0808" d="M 194.953125 193.378906 C 196.601562 193.320312 199.507812 192.207031 200.425781 191.082031 C 200.738281 193.796875 197.277344 195.207031 195.070312 195.273438 C 192.40625 195.355469 188.703125 194.8125 188.511719 191.707031 C 189.726562 193.082031 193.003906 193.449219 194.953125 193.378906 " fill-opacity="1" fill-rule="nonzero"/><path fill="#fa8609" d="M 169.703125 189.320312 C 169.46875 191.167969 167.132812 192.390625 164.488281 192.050781 C 161.84375 191.714844 159.894531 189.949219 160.128906 188.101562 C 160.363281 186.257812 162.695312 185.035156 165.339844 185.371094 C 167.984375 185.707031 169.9375 187.476562 169.703125 189.320312 " fill-opacity="1" fill-rule="nonzero"/><path fill="#ffd800" d="M 200.976562 189.640625 C 200.976562 192.101562 198.066406 194.09375 194.480469 194.09375 C 190.890625 194.09375 187.980469 192.101562 187.980469 189.640625 C 187.980469 187.179688 190.890625 185.183594 194.480469 185.183594 C 198.066406 185.183594 200.976562 187.179688 200.976562 189.640625 " fill-opacity="1" fill-rule="nonzero"/><path fill="#ffd800" d="M 189.363281 189.640625 C 189.363281 192.101562 186.453125 194.09375 182.863281 194.09375 C 179.277344 194.09375 176.367188 192.101562 176.367188 189.640625 C 176.367188 187.179688 179.277344 185.183594 182.863281 185.183594 C 186.453125 185.183594 189.363281 187.179688 189.363281 189.640625 " fill-opacity="1" fill-rule="nonzero"/><path fill="#fa8609" d="M 207.855469 189.320312 C 208.089844 191.167969 210.425781 192.390625 213.070312 192.050781 C 215.714844 191.714844 217.667969 189.949219 217.433594 188.101562 C 217.195312 186.257812 214.863281 185.035156 212.21875 185.371094 C 209.574219 185.707031 207.621094 187.476562 207.855469 189.320312 " fill-opacity="1" fill-rule="nonzero"/><path fill="#fb9607" d="M 196.945312 181.765625 C 194.480469 181.59375 183.347656 181.65625 180.640625 181.765625 C 178.253906 181.859375 179.558594 177.035156 181.308594 176.078125 C 183.058594 175.125 194.082031 175.214844 195.625 176.3125 C 196.59375 177.007812 199.140625 181.917969 196.945312 181.765625 " fill-opacity="1" fill-rule="nonzero"/><path fill="#231f20" d="M 192.007812 183.929688 C 191.042969 183.675781 189.652344 183.707031 188.511719 183.722656 C 187.371094 183.707031 185.980469 183.675781 185.015625 183.929688 C 184.011719 184.195312 182.484375 184.867188 183.960938 185.84375 C 184.914062 186.472656 185.867188 186.785156 186.761719 187.589844 C 187.179688 187.972656 187.917969 188.804688 188.511719 188.785156 C 189.105469 188.804688 189.84375 187.972656 190.261719 187.589844 C 191.15625 186.785156 192.109375 186.472656 193.0625 185.84375 C 194.539062 184.867188 193.011719 184.195312 192.007812 183.929688 " fill-opacity="1" fill-rule="nonzero"/></svg>